<svg width="136" height="136" viewBox="0 0 136 136" fill="none" xmlns="http://www.w3.org/2000/svg">
<path id="Star" d="M81.6021 36.8291L113.915 21.9375L99.0237 54.2508L98.571 55.233L99.5856 55.6075L132.965 67.9264L99.5856 80.2454L98.571 80.6198L99.0237 81.6021L113.915 113.915L81.6021 99.0237L80.6198 98.571L80.2454 99.5856L67.9264 132.965L55.6075 99.5856L55.233 98.571L54.2508 99.0237L21.9375 113.915L36.8291 81.6021L37.2818 80.6198L36.2672 80.2454L2.88821 67.9264L36.2672 55.6075L37.2818 55.233L36.8291 54.2508L21.9375 21.9375L54.2508 36.8291L55.233 37.2818L55.6075 36.2672L67.9264 2.88821L80.2454 36.2672L80.6198 37.2818L81.6021 36.8291Z" fill="white" stroke="#020202" stroke-width="2"/>
</svg>
